<?xml version="1.0" encoding="utf-8"?>
<!-- Generator: Adobe Illustrator 22.1.0, SVG Export Plug-In . SVG Version: 6.00 Build 0)  -->
<svg version="1.1" id="Layer_1" xmlns="http://www.w3.org/2000/svg" xmlns:xlink="http://www.w3.org/1999/xlink" x="0px" y="0px"
	 viewBox="0 0 869 768" style="enable-background:new 0 0 869 768;" xml:space="preserve">
<title></title>
<path d="M306.4,346.2l111.2,111.2c1.2,1.2,2.5,1.9,3.7,3.1c0.6,0.6,1.2,0.6,1.9,1.2s1.9,0.6,2.5,1.2s1.9,0.6,2.5,0.6
	s1.2,0.6,2.5,0.6s3.1,0.6,4.3,0.6c0,0,0,0,0.6,0l0,0c1.2,0,3.1,0,4.3-0.6c0.6,0,1.2-0.6,1.9-0.6s1.9-0.6,2.5-0.6
	c0.6-0.6,1.9-0.6,2.5-1.2s1.2-0.6,1.9-1.2s2.5-1.9,3.7-3.1c0,0,0,0,0.6,0L564,345.6c9.8-9.8,9.8-25.2,0-35c-5-5-11-7.3-17.2-7.3
	s-12.3,2.5-17.2,7.3l-78.4,78.9c-8.9,9-23.4,9-32.4,0l-78.4-78.9c-5-5-11-7.3-17.2-7.3c-4.9,0-9.6,1.5-13.8,4.5
	C296.5,316.7,295.4,335.1,306.4,346.2L306.4,346.2z"/>
</svg>
