<?xml version="1.0" encoding="utf-8"?>
<!-- Generator: Adobe Illustrator 22.1.0, SVG Export Plug-In . SVG Version: 6.00 Build 0)  -->
<svg version="1.1" id="Layer_1" xmlns="http://www.w3.org/2000/svg" xmlns:xlink="http://www.w3.org/1999/xlink" x="0px" y="0px"
	 viewBox="0 0 124 124" style="enable-background:new 0 0 124 124;" xml:space="preserve">
<g>
	<g>
		<path d="M57.6,71.6L57.6,71.6c-1.7,0-3.1-1.4-3.1-3.1V57.4c0-1.7,1.4-3.1,3.1-3.1c0.5,0,1,0.1,1.4,0.4l10.5,5.6
			c1,0.5,1.6,1.6,1.6,2.7c0,1.1-0.6,2.2-1.6,2.7L59,71.3C58.6,71.5,58.1,71.6,57.6,71.6z M57.6,56.4c-0.5,0-1.1,0.4-1.1,1.1v11.1
			c0,0.7,0.6,1.1,1.1,1.1l0,0c0.2,0,0.3,0,0.5-0.1L68.6,64c0.4-0.2,0.6-0.5,0.6-1s-0.2-0.8-0.6-1l-10.5-5.6
			C57.9,56.4,57.8,56.4,57.6,56.4z"/>
	</g>
	<g>
		<path d="M87.4,85H36.6c-1.7,0-3.1-1.4-3.1-3.1V42.1c0-1.7,1.4-3.1,3.1-3.1h50.8c1.7,0,3.1,1.4,3.1,3.1v39.8
			C90.5,83.6,89.1,85,87.4,85z M36.6,41c-0.6,0-1.1,0.5-1.1,1.1v39.8c0,0.6,0.5,1.1,1.1,1.1h50.8c0.6,0,1.1-0.5,1.1-1.1V42.1
			c0-0.6-0.5-1.1-1.1-1.1H36.6z"/>
	</g>
	<g>
		<rect x="28.5" y="46" width="2" height="32"/>
	</g>
	<g>
		<rect x="93.5" y="46" width="2" height="32"/>
	</g>
</g>
</svg>
